# xmcd
#
# Track frame offsets:
#	150
#	10851
#	22710
#	34175
#	45828
#	56466
#	67461
#	78285
#	92012
#	104000
#	117656
#	127415
#	138097
#	149195
#	161408
#	173709
#	184274
#	195143
#	206471
#	215202
#
# Disc length: 3034 seconds
#
# Revision: 0
# Processed by: cddbd v1.5.2PL0 Copyright (c) Steve Scherf et al.
# Submitted via: EasyCDDAExtractor 16.0.6.1
#
DISCID=220bd814
DTITLE=Artisti Vari - Country and Western Ladies [CD07)
DYEAR=2014
DGENRE=country
TTITLE0=Patsy Cline - Stop, Look And Listen
TTITLE1=Goldie Hill - My Love Is A Flame
TTITLE2=Jean Shepard and Ferlin Husky - A Dear John Letter
TTITLE3=The Maddox Brothers and Rosw - Marry Me Again
TTITLE4=Skeeter Davis - Wave Bye Bye
TTITLE5=Kitty Wells - Searching (For Someone Else)
TTITLE6=Jean Shepard - Over And Over
TTITLE7=Patsy Montana - Ridin' The Sunset Trail
TTITLE8=Wanda Jackson - Silver Threads And Golden Needle
TTITLE9=Wanda and Ruth Neal - Round Town Girls
TTITLE10=Jean Shepard - A Thief In The Night
TTITLE11=The Maddox Brothers and Rosw - I Gotta Go Get My Baby
TTITLE12=Goldie Hill - Let Me Be The One
TTITLE13=Kitty Wells - Amigo's Guitar
TTITLE14=Patsy Montana - Rodeo Sweetheart
TTITLE15=Goldie Hill and Justin Tubb - Looking Back To See
TTITLE16=Jean Shepard - The Weak And The Strong
TTITLE17=Patsy Cline - The Wonderful Someone
TTITLE18=Skeeter Davis - I Ain't A Talkin'
TTITLE19=The Maddox Brothers and Rosw - A Rusty Old Halo
EXTD=
EXTT0=
EXTT1=
EXTT2=
EXTT3=
EXTT4=
EXTT5=
EXTT6=
EXTT7=
EXTT8=
EXTT9=
EXTT10=
EXTT11=
EXTT12=
EXTT13=
EXTT14=
EXTT15=
EXTT16=
EXTT17=
EXTT18=
EXTT19=
PLAYORDER=
